<?xml version="1.0"?>
<svg width="100" height="100" xmlns="http://www.w3.org/2000/svg" xmlns:svg="http://www.w3.org/2000/svg">
 <!-- Created with SVG-edit - https://github.com/SVG-Edit/svgedit-->
 <g class="layer">
  <title>Layer 1</title>
  <path d="m1,23.90625c1.647333,-0.057167 2.128861,-0.557619 2.716,-1c0.525332,-0.395813 1.026369,-0.957617 1.709333,-1.425333c0.773902,-0.529993 1.146377,-0.872835 1.796,-1.453167c0.629882,-0.562698 1.203735,-0.335432 1.778666,-1c0.475148,-0.549229 0.885229,-0.891359 1.5,-1.1215c0.866658,-0.324436 1.444791,-0.625723 1.925333,-1c0.531942,-0.41431 0.932878,-0.737902 1.66,-1.085333c0.71713,-0.342656 0.786837,-1.561229 1.34,-1.914667c0.696218,-0.444841 1.488672,-0.845163 2,-1.425333c0.620192,-0.703691 1.079767,-1.194524 1.574667,-1.796c0.505951,-0.614908 0.798161,-1.081827 1,-1.945333c0.18211,-0.779099 0.858116,-1.066396 1,-1.918666c0.143955,-0.864712 0.50642,-1.387606 1.085333,-1.913333c0.677181,-0.614968 1.036438,-0.592887 1.630667,-1.001333c0.603022,-0.414489 1.117334,-1 1.931334,-1c0.927334,0 1.116945,-0.670736 1.705334,-1c0.812731,-0.454807 1.868666,0 2.7045,0c0.906834,0 1.821333,0 2.658833,0c0.858665,0 1.177559,0.731215 1.931335,0.9955c0.804653,0.282122 1.778,0.015167 2.341999,0.579167c0.436001,0.436 1.005333,0.999954 1.010666,1.925333c0.004913,0.852653 0.522919,1.143374 1,1.721334c0.498661,0.604103 0.798161,1.081827 1,1.945333c0.18211,0.779099 0.446651,1.263263 1.057167,1.833333c0.647335,0.60445 1.088566,0.590754 1.590168,1.057167c0.654587,0.608667 0.918285,1.096076 1.352665,1.8575c0.381458,0.668659 1.411823,0.92991 1.964001,1.510666c0.454029,0.477529 0.837547,1.153273 1.388664,1.574667c0.543465,0.415545 0.941101,0.423235 1.647335,1.004499c0.652763,0.537256 1.035999,0.995501 1.914665,0.995501c0.918667,0 1.847076,-0.41165 2.66,0.035999c0.650127,0.358002 1,0.964001 1.925335,0.964001c0.852665,0 1.784,0 2.666668,0c0.890499,0 1.48534,-0.305082 1.890499,-1.052668c0.3992,-0.736589 0.752499,-1.392408 0.942833,-2.299999c0.145088,-0.691842 0.512566,-1.112972 1.085335,-1.647333c0.661526,-0.617167 0.882465,-0.915232 0.914665,-1.833333c0.028603,-0.815504 0.602856,-1.276324 1,-1.814c0.400597,-0.542349 0.930458,-0.909244 1.352669,-1.357167c0.547874,-0.581245 0.626038,-1.450803 1.147331,-1.974666c0.472679,-0.475012 0.965706,-0.841669 1.501335,-1.304833c0.606163,-0.524154 0.731956,-1.275958 1.423996,-1.68c0.801598,-0.468007 1.314575,-0.710684 1.927338,-1.036c0.822586,-0.436714 1.984535,0.269808 2.561996,-0.284c0.562164,-0.539141 1.142502,-0.716 2.064499,-0.716c0.899338,0 1.75621,-0.181345 2.595505,0c0.83493,0.180403 1.630821,0.440723 2.339996,1.001333c0.576416,0.455659 1.115608,0.699816 1.963837,0.998667c0.752335,0.265062 1.41758,1.062392 1.837502,1.716c0.495316,0.770954 0.818604,1.373797 1.32,1.858667c0.576065,0.557072 1.134514,0.836957 1.68,1.424c0.498894,0.536901 0.886856,1.110991 1.283997,1.648666c0.400597,0.54235 0.977234,0.872524 1.425331,1.363334c0.537788,0.589048 0.417732,1.660938 1.149338,1.978666c0.849236,0.368814 1.474449,0.594771 1.925331,1.0315c0.573738,0.555736 0.536003,1.553834 1.216003,1.977834l0.858665,0.037333l0.423996,0.68l0.648666,0.284" fill="none" id="svg_16" stroke="#000000" stroke-dasharray="2,2" stroke-linecap="round" stroke-linejoin="round" stroke-width="5"/>
  <path d="m41.176331,58.101074c1.647333,-0.057167 2.128861,-0.557619 2.716,-1c0.525332,-0.395813 1.026369,-0.957617 1.709333,-1.425333c0.773902,-0.529993 1.146377,-0.872835 1.796,-1.453167c0.629882,-0.562698 1.203735,-0.335432 1.778666,-1c0.475148,-0.549229 0.885229,-0.891359 1.5,-1.1215c0.866658,-0.324436 1.444791,-0.625723 1.925333,-1c0.531942,-0.41431 0.932878,-0.737902 1.66,-1.085333c0.71713,-0.342656 0.786837,-1.561229 1.34,-1.914667c0.696218,-0.444841 1.488672,-0.845163 2,-1.425333c0.620192,-0.703691 1.079767,-1.194524 1.574667,-1.796c0.505951,-0.614908 0.798161,-1.081827 1,-1.945333c0.18211,-0.779099 0.858116,-1.066396 1,-1.918666c0.143955,-0.864712 0.50642,-1.387606 1.085333,-1.913333c0.677181,-0.614968 1.036438,-0.592887 1.630667,-1.001333c0.603022,-0.414489 1.117334,-1 1.931334,-1c0.927334,0 1.116945,-0.670736 1.705334,-1c0.812731,-0.454807 1.868666,0 2.7045,0c0.906834,0 1.821333,0 2.658833,0c0.858665,0 1.177559,0.731215 1.931335,0.9955c0.804653,0.282122 1.778,0.015167 2.341999,0.579167c0.436001,0.436 1.005333,0.999954 1.010666,1.925333c0.004913,0.852653 0.522919,1.143374 1,1.721334c0.498661,0.604103 0.798161,1.081827 1,1.945333c0.18211,0.779099 0.446651,1.263263 1.057167,1.833333c0.647335,0.60445 1.088566,0.590754 1.590168,1.057167c0.654587,0.608667 0.918285,1.096076 1.352665,1.8575c0.381458,0.668659 1.411823,0.92991 1.964001,1.510666c0.454029,0.477529 0.837547,1.153273 1.388664,1.574667c0.543465,0.415545 0.941101,0.423235 1.647335,1.004499c0.652763,0.537256 1.035999,0.995501 1.914665,0.995501c0.918667,0 1.847076,-0.41165 2.66,0.035999c0.650127,0.358002 1,0.964001 1.925335,0.964001c0.852665,0 1.784,0 2.666668,0c0.890499,0 1.48534,-0.305082 1.890499,-1.052668c0.3992,-0.736589 0.752499,-1.392408 0.942833,-2.299999c0.145088,-0.691842 0.512566,-1.112972 1.085335,-1.647333c0.661526,-0.617167 0.882465,-0.915232 0.914665,-1.833333c0.028603,-0.815504 0.602856,-1.276324 1,-1.814c0.400597,-0.542349 0.930458,-0.909244 1.352669,-1.357167c0.547874,-0.581245 0.626038,-1.450803 1.147331,-1.974666c0.472679,-0.475012 0.965706,-0.841669 1.501335,-1.304833c0.606163,-0.524154 0.731956,-1.275958 1.423996,-1.68c0.801598,-0.468007 1.314575,-0.710684 1.927338,-1.036c0.822586,-0.436714 1.984535,0.269808 2.561996,-0.284c0.562164,-0.539141 1.142502,-0.716 2.064499,-0.716c0.899338,0 1.75621,-0.181345 2.595505,0c0.83493,0.180403 1.630821,0.440723 2.339996,1.001333c0.576416,0.455659 1.115608,0.699816 1.963837,0.998667c0.752335,0.265062 1.41758,1.062392 1.837502,1.716c0.495316,0.770954 0.818604,1.373797 1.32,1.858667c0.576065,0.557072 1.134514,0.836957 1.68,1.424c0.498894,0.536901 0.886856,1.110991 1.283997,1.648666c0.400597,0.54235 0.977234,0.872524 1.425331,1.363334c0.537788,0.589048 0.417732,1.660938 1.149338,1.978666c0.849236,0.368814 1.474449,0.594771 1.925331,1.0315c0.573738,0.555736 0.536003,1.553834 1.216003,1.977834l0.858665,0.037333l0.423996,0.68l0.648666,0.284" fill="none" id="svg_17" stroke="#000000" stroke-dasharray="2,2" stroke-linecap="round" stroke-linejoin="round" stroke-width="5" transform="rotate(89.842 89 47)"/>
  <path d="m6.27066,99.077362c1.647333,-0.057167 2.128861,-0.557619 2.716,-1c0.525332,-0.395813 1.026369,-0.957617 1.709333,-1.425333c0.773902,-0.529993 1.146377,-0.872835 1.796,-1.453167c0.629882,-0.562698 1.203735,-0.335432 1.778666,-1c0.475148,-0.549229 0.885229,-0.891359 1.5,-1.1215c0.866658,-0.324436 1.444791,-0.625723 1.925333,-1c0.531942,-0.41431 0.932878,-0.737902 1.66,-1.085333c0.71713,-0.342656 0.786837,-1.561229 1.34,-1.914667c0.696218,-0.444841 1.488672,-0.845163 2,-1.425333c0.620192,-0.703691 1.079767,-1.194524 1.574667,-1.796c0.505951,-0.614908 0.798161,-1.081827 1,-1.945333c0.18211,-0.779099 0.858116,-1.066396 1,-1.918666c0.143955,-0.864712 0.50642,-1.387606 1.085333,-1.913333c0.677181,-0.614968 1.036438,-0.592887 1.630667,-1.001333c0.603022,-0.414489 1.117334,-1 1.931334,-1c0.927334,0 1.116945,-0.670736 1.705334,-1c0.812731,-0.454807 1.868666,0 2.7045,0c0.906834,0 1.821333,0 2.658833,0c0.858665,0 1.177559,0.731215 1.931335,0.9955c0.804653,0.282122 1.778,0.015167 2.341999,0.579167c0.436001,0.436 1.005333,0.999954 1.010666,1.925333c0.004913,0.852653 0.522919,1.143374 1,1.721334c0.498661,0.604103 0.798161,1.081827 1,1.945333c0.18211,0.779099 0.446651,1.263263 1.057167,1.833333c0.647335,0.60445 1.088566,0.590754 1.590168,1.057167c0.654587,0.608667 0.918285,1.096076 1.352665,1.8575c0.381458,0.668659 1.411823,0.92991 1.964001,1.510666c0.454029,0.477529 0.837547,1.153273 1.388664,1.574667c0.543465,0.415545 0.941101,0.423235 1.647335,1.004499c0.652763,0.537256 1.035999,0.995501 1.914665,0.995501c0.918667,0 1.847076,-0.41165 2.66,0.035999c0.650127,0.358002 1,0.964001 1.925335,0.964001c0.852665,0 1.784,0 2.666668,0c0.890499,0 1.48534,-0.305082 1.890499,-1.052668c0.3992,-0.736589 0.752499,-1.392408 0.942833,-2.299999c0.145088,-0.691842 0.512566,-1.112972 1.085335,-1.647333c0.661526,-0.617167 0.882465,-0.915232 0.914665,-1.833333c0.028603,-0.815504 0.602856,-1.276324 1,-1.814c0.400597,-0.542349 0.930458,-0.909244 1.352669,-1.357167c0.547874,-0.581245 0.626038,-1.450803 1.147331,-1.974666c0.472679,-0.475012 0.965706,-0.841669 1.501335,-1.304833c0.606163,-0.524154 0.731956,-1.275958 1.423996,-1.68c0.801598,-0.468007 1.314575,-0.710684 1.927338,-1.036c0.822586,-0.436714 1.984535,0.269808 2.561996,-0.284c0.562164,-0.539141 1.142502,-0.716 2.064499,-0.716c0.899338,0 1.75621,-0.181345 2.595505,0c0.83493,0.180403 1.630821,0.440723 2.339996,1.001333c0.576416,0.455659 1.115608,0.699816 1.963837,0.998667c0.752335,0.265062 1.41758,1.062392 1.837502,1.716c0.495316,0.770954 0.818604,1.373797 1.32,1.858667c0.576065,0.557072 1.134514,0.836957 1.68,1.424c0.498894,0.536901 0.886856,1.110991 1.283997,1.648666c0.400597,0.54235 0.977234,0.872524 1.425331,1.363334c0.537788,0.589048 0.417732,1.660938 1.149338,1.978666c0.849236,0.368814 1.474449,0.594771 1.925331,1.0315c0.573738,0.555736 0.536003,1.553834 1.216003,1.977834l0.858665,0.037333l0.423996,0.68l0.648666,0.284" fill="none" id="svg_18" stroke="#000000" stroke-dasharray="2,2" stroke-linecap="round" stroke-linejoin="round" stroke-width="5" transform="rotate(-178.899 54.0943 87.9763)"/>
  <path d="m-34.988861,61.443481c1.647333,-0.057167 2.128861,-0.557619 2.716,-1c0.525332,-0.395813 1.026369,-0.957617 1.709333,-1.425333c0.773902,-0.529993 1.146377,-0.872835 1.796,-1.453167c0.629882,-0.562698 1.203735,-0.335432 1.778666,-1c0.475148,-0.549229 0.885229,-0.891359 1.5,-1.1215c0.866658,-0.324436 1.444791,-0.625723 1.925333,-1c0.531942,-0.41431 0.932878,-0.737902 1.66,-1.085333c0.71713,-0.342656 0.786837,-1.561229 1.34,-1.914667c0.696218,-0.444841 1.488672,-0.845163 2,-1.425333c0.620192,-0.703691 1.079767,-1.194524 1.574667,-1.796c0.505951,-0.614908 0.798161,-1.081827 1,-1.945333c0.18211,-0.779099 0.858116,-1.066396 1,-1.918666c0.143955,-0.864712 0.50642,-1.387606 1.085333,-1.913333c0.677181,-0.614968 1.036438,-0.592887 1.630667,-1.001333c0.603022,-0.414489 1.117334,-1 1.931334,-1c0.927334,0 1.116945,-0.670736 1.705334,-1c0.812731,-0.454807 1.868666,0 2.7045,0c0.906834,0 1.821333,0 2.658833,0c0.858665,0 1.177559,0.731215 1.931335,0.9955c0.804653,0.282122 1.778,0.015167 2.341999,0.579167c0.436001,0.436 1.005333,0.999954 1.010666,1.925333c0.004913,0.852653 0.522919,1.143374 1,1.721334c0.498661,0.604103 0.798161,1.081827 1,1.945333c0.18211,0.779099 0.446651,1.263263 1.057167,1.833333c0.647335,0.60445 1.088566,0.590754 1.590168,1.057167c0.654587,0.608667 0.918285,1.096076 1.352665,1.8575c0.381458,0.668659 1.411823,0.92991 1.964001,1.510666c0.454029,0.477529 0.837547,1.153273 1.388664,1.574667c0.543465,0.415545 0.941101,0.423235 1.647335,1.004499c0.652763,0.537256 1.035999,0.995501 1.914665,0.995501c0.918667,0 1.847076,-0.41165 2.66,0.035999c0.650127,0.358002 1,0.964001 1.925335,0.964001c0.852665,0 1.784,0 2.666668,0c0.890499,0 1.48534,-0.305082 1.890499,-1.052668c0.3992,-0.736589 0.752499,-1.392408 0.942833,-2.299999c0.145088,-0.691842 0.512566,-1.112972 1.085335,-1.647333c0.661526,-0.617167 0.882465,-0.915232 0.914665,-1.833333c0.028603,-0.815504 0.602856,-1.276324 1,-1.814c0.400597,-0.542349 0.930458,-0.909244 1.352669,-1.357167c0.547874,-0.581245 0.626038,-1.450803 1.147331,-1.974666c0.472679,-0.475012 0.965706,-0.841669 1.501335,-1.304833c0.606163,-0.524154 0.731956,-1.275958 1.423996,-1.68c0.801598,-0.468007 1.314575,-0.710684 1.927338,-1.036c0.822586,-0.436714 1.984535,0.269808 2.561996,-0.284c0.562164,-0.539141 1.142502,-0.716 2.064499,-0.716c0.899338,0 1.75621,-0.181345 2.595505,0c0.83493,0.180403 1.630821,0.440723 2.339996,1.001333c0.576416,0.455659 1.115608,0.699816 1.963837,0.998667c0.752335,0.265062 1.41758,1.062392 1.837502,1.716c0.495316,0.770954 0.818604,1.373797 1.32,1.858667c0.576065,0.557072 1.134514,0.836957 1.68,1.424c0.498894,0.536901 0.886856,1.110991 1.283997,1.648666c0.400597,0.54235 0.977234,0.872524 1.425331,1.363334c0.537788,0.589048 0.417732,1.660938 1.149338,1.978666c0.849236,0.368814 1.474449,0.594771 1.925331,1.0315c0.573738,0.555736 0.536003,1.553834 1.216003,1.977834l0.858665,0.037333l0.423996,0.68l0.648666,0.284" fill="none" id="svg_19" stroke="#000000" stroke-dasharray="2,2" stroke-linecap="round" stroke-linejoin="round" stroke-width="5" transform="rotate(-85.2212 12.8348 50.3424)"/>
 </g>
</svg>