<?xml version="1.0"?>
<svg width="100" height="100" xmlns="http://www.w3.org/2000/svg" xmlns:svg="http://www.w3.org/2000/svg">
 <!-- Created with SVG-edit - https://github.com/SVG-Edit/svgedit-->
 <g class="layer">
  <title>Layer 1</title>
  <path d="m2.922874,23.688172c0.262175,-0.914667 1.311171,-0.457668 1.842152,-1.057167c0.589489,-0.665556 0.530856,-1.079603 0.927307,-1.658833c0.388659,-0.567842 0.902137,-0.803856 1.315801,-1.294666c0.496461,-0.589048 0.856071,-1.342001 1.434426,-1.9685c0.549738,-0.595501 1.364004,-1.071183 1.753375,-1.899334c0.326108,-0.693598 0.642669,-1.1215 1.035316,-1.6215c0.392648,-0.5 0.677449,-0.930751 1.127478,-1.500167c0.482099,-0.609994 1.153447,-0.79356 1.608748,-1.425166c0.475303,-0.659353 0.503334,-1.579765 1.009161,-2.222c0.510811,-0.648561 0.962624,-0.918018 1.639674,-1.352667c0.661803,-0.424861 1.52572,-0.558418 2.000165,-1.166667c0.49697,-0.637127 1.006667,-0.41061 1.584131,-0.918667c0.661706,-0.582173 1.127165,-0.517159 1.782917,-0.914667c0.543172,-0.329264 0.856071,-1 1.641366,-1c0.856071,0 1.657983,0 2.53067,0c0.788528,0 1.614194,-0.032199 2.461743,0c0.752833,0.028601 1.063772,0.916119 1.737989,1c0.787503,0.097976 1.567749,0.099453 2.104327,0.647333c0.413501,0.422209 1.460598,0.436009 1.817229,1.316667c0.322665,0.796786 0.767353,0.675741 1.48689,1.036c0.550077,0.275413 0.405729,1.421852 0.923153,1.989333c0.395132,0.433358 0.8775,0.863693 1.317035,1.294667c0.548456,0.537776 0.828114,1.157362 1.31457,1.679999c0.45472,0.488542 1.042999,0.654209 1.453657,1.257334c0.458006,0.672661 0.209271,1.204577 0.810992,1.778666c0.50311,0.480004 0.691509,1.014538 1.035314,1.5c0.373436,0.527306 0.87219,1.125723 1.315803,1.5c0.491062,0.41431 0.284253,1.560026 0.923153,1.964001c0.685237,0.433271 1.213554,0.710682 1.779221,1.035999c0.708282,0.407335 1.906596,-0.575926 2.443896,0.020834c0.576129,0.639885 0.789394,1.166187 1.520743,0.979166c0.708508,-0.181181 0.953801,-1.116791 1.248717,-1.942833c0.284397,-0.796583 0.988861,-1.480368 1.692446,-1.890501c0.675451,-0.393732 0.959006,-0.813229 1.469663,-1.166666c0.642715,-0.444839 1.487566,-0.556976 2.051246,-1.057167c0.60882,-0.540247 0.630115,-1.229785 1.248717,-1.821333c0.51578,-0.493224 1.083483,-0.709167 1.584134,-1.206833c0.614405,-0.610743 0.776939,-1.043528 1.185326,-1.630667c0.365396,-0.525334 0.808231,-1.090547 1.315799,-1.709333c0.575154,-0.70118 0.876767,-0.914756 1.453661,-1.553834c0.567159,-0.628294 1.015361,-0.573621 1.520739,-1.020833c0.43744,-0.387093 0.839742,-0.844384 1.248721,-1.352667c0.42877,-0.532886 1.282133,-0.418683 1.793532,-1c0.448794,-0.510154 1.235085,-0.120849 1.889234,-0.683333c0.631844,-0.5433 0.985773,-0.964 1.836918,-0.964c0.830227,0 1.603368,0 2.396049,0c0.854222,0 1.641366,0 2.501125,0c0.865308,0 1.199982,0.315283 1.788462,0.8785c0.603607,0.577695 1.114324,0.338955 1.642133,1c0.508476,0.636827 1.237423,0.414465 1.846151,0.954834c0.524915,0.465964 0.923153,0.741333 1.38473,1.166667c0.461577,0.425333 0.818774,0.869304 1.351493,1.425333c0.461196,0.481374 0.601001,1.088738 1.110246,1.574667c0.579365,0.552838 0.375841,1.226291 0.923153,1.833333c0.550954,0.611077 0.895558,0.737209 1.430277,1.166667c0.524204,0.421013 0.813978,0.981256 1.185326,1.5c0.346134,0.483521 0.567765,1.014071 1.07701,1.5c0.579365,0.552837 0.977497,0.572319 1.538594,1.166666c0.563779,0.597191 1.020785,1.04808 1.07701,1.890501c0.058958,0.88336 0.769297,0.942833 0.923153,1.590166l0.530508,0.352667" fill="none" id="svg_42" stroke="#000000" stroke-dasharray="2,2" stroke-linecap="round" stroke-linejoin="round" stroke-width="5" transform="matrix(1 0 0 1 0 0) rotate(2.7182 48.8842 13.681)"/>
  <path d="m51.212677,66.007156c0.206992,-0.914667 1.035194,-0.457668 1.454414,-1.057167c0.465412,-0.665556 0.41912,-1.079603 0.732127,-1.658833c0.306853,-0.567842 0.712254,-0.803856 1.038849,-1.294666c0.391965,-0.589048 0.675884,-1.342001 1.132506,-1.9685c0.434028,-0.595501 1.076907,-1.071183 1.384323,-1.899334c0.257469,-0.693598 0.507399,-1.1215 0.817402,-1.6215c0.310003,-0.5 0.534858,-0.930751 0.890165,-1.500167c0.380626,-0.609994 0.910668,-0.79356 1.270136,-1.425166c0.375261,-0.659353 0.397391,-1.579765 0.796751,-2.222c0.403295,-0.648561 0.76001,-0.918018 1.294554,-1.352667c0.522506,-0.424861 1.204585,-0.558418 1.579167,-1.166667c0.392367,-0.637127 0.794783,-0.41061 1.250701,-0.918667c0.522429,-0.582173 0.889918,-0.517159 1.407646,-0.914667c0.428845,-0.329264 0.675884,-1 1.295889,-1c0.675884,0 1.309009,0 1.998012,0c0.622558,0 1.274437,-0.032199 1.943592,0c0.594376,0.028601 0.839868,0.916119 1.372175,1c0.621749,0.097976 1.237767,0.099453 1.661405,0.647333c0.326466,0.422209 1.15317,0.436009 1.434736,1.316667c0.25475,0.796786 0.605839,0.675741 1.173927,1.036c0.434296,0.275413 0.32033,1.421852 0.728847,1.989333c0.311964,0.433358 0.692802,0.863693 1.039824,1.294667c0.433017,0.537776 0.653811,1.157362 1.037878,1.679999c0.35901,0.488542 0.823467,0.654209 1.147689,1.257334c0.361604,0.672661 0.165224,1.204577 0.640293,1.778666c0.397215,0.480004 0.545959,1.014538 0.8174,1.5c0.294835,0.527306 0.68861,1.125723 1.038851,1.5c0.387703,0.41431 0.224423,1.560026 0.728847,1.964001c0.541008,0.433271 0.958124,0.710682 1.404728,1.035999c0.559202,0.407335 1.505293,-0.575926 1.929501,0.020834c0.454864,0.639885 0.623241,1.166187 1.200655,0.979166c0.55938,-0.181181 0.753044,-1.116791 0.985885,-1.942833c0.224537,-0.796583 0.780725,-1.480368 1.336218,-1.890501c0.533281,-0.393732 0.757153,-0.813229 1.160326,-1.166666c0.507435,-0.444839 1.174461,-0.556976 1.619497,-1.057167c0.480674,-0.540247 0.497487,-1.229785 0.985885,-1.821333c0.407218,-0.493224 0.85543,-0.709167 1.250703,-1.206833c0.485084,-0.610743 0.613408,-1.043528 0.935837,-1.630667c0.288487,-0.525334 0.638113,-1.090547 1.038848,-1.709333c0.454095,-0.70118 0.692224,-0.914756 1.147692,-1.553834c0.447783,-0.628294 0.801647,-0.573621 1.200652,-1.020833c0.345367,-0.387093 0.662992,-0.844384 0.985888,-1.352667c0.338522,-0.532886 1.012268,-0.418683 1.416027,-1c0.354331,-0.510154 0.975123,-0.120849 1.491586,-0.683333c0.498853,-0.5433 0.778287,-0.964 1.450281,-0.964c0.65548,0 1.265889,0 1.891725,0c0.674424,0 1.295889,0 1.974685,0c0.683177,0 0.947408,0.315283 1.412024,0.8785c0.476559,0.577695 0.87978,0.338955 1.296495,1c0.401452,0.636827 0.976969,0.414465 1.457571,0.954834c0.41443,0.465964 0.728847,0.741333 1.09327,1.166667c0.364423,0.425333 0.646437,0.869304 1.067029,1.425333c0.364123,0.481374 0.474502,1.088738 0.87656,1.574667c0.45742,0.552838 0.296733,1.226291 0.728847,1.833333c0.434988,0.611077 0.70706,0.737209 1.129231,1.166667c0.413869,0.421013 0.642651,0.981256 0.935837,1.5c0.273279,0.483521 0.448261,1.014071 0.850319,1.5c0.45742,0.552837 0.771752,0.572319 1.214748,1.166666c0.445114,0.597191 0.805929,1.04808 0.850319,1.890501c0.046549,0.88336 0.607374,0.942833 0.728847,1.590166l0.418846,0.352667" fill="none" id="svg_43" stroke="#000000" stroke-dasharray="2,2" stroke-linecap="round" stroke-linejoin="round" stroke-width="5" transform="rotate(92.7502 87.5 56)"/>
  <path d="m2.842716,97.156421c0.246948,-0.914667 1.235017,-0.457668 1.735158,-1.057167c0.55525,-0.665556 0.500023,-1.079603 0.873448,-1.658833c0.366085,-0.567842 0.849739,-0.803856 1.239377,-1.294666c0.467626,-0.589048 0.80635,-1.342001 1.351113,-1.9685c0.517808,-0.595501 1.284781,-1.071183 1.651537,-1.899334c0.307168,-0.693598 0.605342,-1.1215 0.975184,-1.6215c0.369842,-0.5 0.638102,-0.930751 1.061993,-1.500167c0.454098,-0.609994 1.086453,-0.79356 1.51531,-1.425166c0.447697,-0.659353 0.474099,-1.579765 0.950547,-2.222c0.481143,-0.648561 0.906714,-0.918018 1.54444,-1.352667c0.623365,-0.424861 1.437105,-0.558418 1.883993,-1.166667c0.468106,-0.637127 0.948199,-0.41061 1.492123,-0.918667c0.623273,-0.582173 1.061698,-0.517159 1.679363,-0.914667c0.511624,-0.329264 0.80635,-1 1.546034,-1c0.80635,0 1.561685,0 2.383686,0c0.742729,0 1.52044,-0.032199 2.318762,0c0.709108,0.028601 1.001987,0.916119 1.637045,1c0.741764,0.097976 1.476692,0.099453 1.982105,0.647333c0.389484,0.422209 1.375765,0.436009 1.711682,1.316667c0.303924,0.796786 0.722784,0.675741 1.400529,1.036c0.518127,0.275413 0.382163,1.421852 0.869535,1.989333c0.372182,0.433358 0.826533,0.863693 1.24054,1.294667c0.516601,0.537776 0.780016,1.157362 1.238218,1.679999c0.42831,0.488542 0.98242,0.654209 1.369227,1.257334c0.431404,0.672661 0.197117,1.204577 0.763889,1.778666c0.473889,0.480004 0.651345,1.014538 0.975182,1.5c0.351746,0.527306 0.821532,1.125723 1.239379,1.5c0.462541,0.41431 0.267743,1.560026 0.869535,1.964001c0.645438,0.433271 1.143069,0.710682 1.675882,1.035999c0.667144,0.407335 1.795858,-0.575926 2.301951,0.020834c0.542667,0.639885 0.743545,1.166187 1.432416,0.979166c0.667357,-0.181181 0.898403,-1.116791 1.17619,-1.942833c0.267879,-0.796583 0.931427,-1.480368 1.594147,-1.890501c0.63622,-0.393732 0.903305,-0.813229 1.384303,-1.166666c0.605385,-0.444839 1.401167,-0.556976 1.932107,-1.057167c0.573459,-0.540247 0.593517,-1.229785 1.17619,-1.821333c0.485823,-0.493224 1.020553,-0.709167 1.492125,-1.206833c0.578719,-0.610743 0.731813,-1.043528 1.116481,-1.630667c0.344173,-0.525334 0.761288,-1.090547 1.239376,-1.709333c0.541748,-0.70118 0.825844,-0.914756 1.36923,-1.553834c0.534218,-0.628294 0.956388,-0.573621 1.432412,-1.020833c0.412033,-0.387093 0.790968,-0.844384 1.176193,-1.352667c0.403866,-0.532886 1.207665,-0.418683 1.689362,-1c0.422727,-0.510154 1.16335,-0.120849 1.779505,-0.683333c0.595146,-0.5433 0.928519,-0.964 1.730227,-0.964c0.782006,0 1.510243,0 2.256883,0c0.804608,0 1.546034,0 2.355856,0c0.81505,0 1.130285,0.315283 1.684586,0.8785c0.568549,0.577695 1.049603,0.338955 1.546756,1c0.478944,0.636827 1.165552,0.414465 1.738925,0.954834c0.494427,0.465964 0.869535,0.741333 1.304303,1.166667c0.434768,0.425333 0.771219,0.869304 1.272997,1.425333c0.434409,0.481374 0.566094,1.088738 1.045761,1.574667c0.545715,0.552838 0.354011,1.226291 0.869535,1.833333c0.518953,0.611077 0.843543,0.737209 1.347205,1.166667c0.493758,0.421013 0.766701,0.981256 1.116481,1.5c0.32603,0.483521 0.534789,1.014071 1.014456,1.5c0.545715,0.552837 0.920723,0.572319 1.44923,1.166666c0.531034,0.597191 0.961497,1.04808 1.014456,1.890501c0.055534,0.88336 0.724615,0.942833 0.869535,1.590166l0.499695,0.352667" fill="none" id="svg_45" stroke="#000000" stroke-dasharray="2,2" stroke-linecap="round" stroke-linejoin="round" stroke-width="5" transform="rotate(2.13474 46.1345 87.1493)"/>
  <path d="m-23.861126,69.74914c0.211106,-0.954204 1.055766,-0.477451 1.483316,-1.102863c0.474661,-0.694325 0.427449,-1.126269 0.746676,-1.730537c0.312951,-0.592387 0.726408,-0.838603 1.059494,-1.350628c0.399754,-0.61451 0.689316,-1.400009 1.155012,-2.053589c0.442653,-0.621242 1.098307,-1.117485 1.411832,-1.981433c0.262585,-0.723579 0.517482,-1.169977 0.833645,-1.69159c0.316163,-0.521613 0.545487,-0.970983 0.907855,-1.565012c0.38819,-0.636361 0.928765,-0.827862 1.295377,-1.486769c0.382718,-0.687854 0.405288,-1.648051 0.812584,-2.318047c0.411309,-0.676595 0.775113,-0.9577 1.320279,-1.411136c0.532889,-0.443226 1.228522,-0.582556 1.610549,-1.217097c0.400165,-0.664667 0.810577,-0.428359 1.275555,-0.958377c0.532811,-0.607338 0.907603,-0.539513 1.43562,-0.954204c0.437367,-0.343497 0.689316,-1.043225 1.321642,-1.043225c0.689316,0 1.335022,0 2.037717,0c0.634929,0 1.299763,-0.033591 1.982216,0c0.606188,0.029837 0.856558,0.955719 1.399443,1.043225c0.634104,0.102211 1.262364,0.103752 1.694421,0.675314c0.332954,0.440459 1.176086,0.454856 1.463248,1.37358c0.259813,0.831227 0.617879,0.70495 1.197256,1.080781c0.442926,0.287318 0.326696,1.483312 0.743331,2.075323c0.318163,0.45209 0.70657,0.901026 1.060487,1.350629c0.441622,0.561022 0.666804,1.207389 1.058503,1.752617c0.366145,0.509659 0.839831,0.682487 1.170497,1.311683c0.36879,0.701737 0.168507,1.256645 0.653017,1.855549c0.405108,0.500752 0.556809,1.058392 0.833644,1.564838c0.300694,0.550099 0.702294,1.174383 1.059495,1.564838c0.395407,0.432219 0.228883,1.627459 0.743331,2.048896c0.551759,0.451999 0.977164,0.741401 1.432643,1.08078c0.570314,0.424942 1.535207,-0.600821 1.967845,0.021735c0.463904,0.667544 0.635626,1.216596 1.224514,1.021491c0.570497,-0.189013 0.768008,-1.165065 1.005477,-2.026813c0.228999,-0.831016 0.796239,-1.544357 1.362772,-1.972218c0.543879,-0.410751 0.772199,-0.848381 1.183384,-1.217095c0.517519,-0.464067 1.197801,-0.581051 1.65168,-1.102863c0.490226,-0.563599 0.507374,-1.282943 1.005477,-1.900061c0.415311,-0.514544 0.872429,-0.739821 1.275557,-1.258999c0.494724,-0.637143 0.625597,-1.088635 0.954434,-1.701153c0.29422,-0.548042 0.650794,-1.137686 1.059492,-1.783219c0.463119,-0.731489 0.70598,-0.954297 1.1705,-1.620999c0.456681,-0.655452 0.817577,-0.598416 1.224511,-1.064959c0.35223,-0.403825 0.676167,-0.880883 1.00548,-1.411136c0.345249,-0.55592 1.032384,-0.436781 1.444167,-1.043225c0.361372,-0.532206 0.9945,-0.126073 1.521227,-0.71287c0.508766,-0.566784 0.793753,-1.005669 1.479101,-1.005669c0.668505,0 1.291045,0 1.929318,0c0.687827,0 1.321642,0 2.013926,0c0.696753,0 0.966235,0.328911 1.440084,0.916473c0.48603,0.602666 0.897263,0.353606 1.322259,1.043225c0.409429,0.664354 0.996383,0.43238 1.486536,0.996107c0.422666,0.486105 0.743331,0.773377 1.114996,1.217097c0.371665,0.443718 0.659284,0.90688 1.088234,1.486943c0.371359,0.502182 0.483931,1.135799 0.893979,1.642732c0.46651,0.576735 0.30263,1.279298 0.743331,1.912579c0.443632,0.637491 0.721111,0.769075 1.151671,1.217097c0.422094,0.439211 0.655422,1.023671 0.954434,1.564838c0.27871,0.504421 0.457169,1.057905 0.867217,1.564838c0.46651,0.576734 0.787089,0.597058 1.238888,1.217095c0.453959,0.623005 0.821944,1.093384 0.867217,1.972218c0.047474,0.921544 0.619444,0.983587 0.743331,1.658901l0.427169,0.367911" fill="none" id="svg_46" stroke="#000000" stroke-dasharray="2,2" stroke-linecap="round" stroke-linejoin="round" stroke-width="5" transform="rotate(89.6784 13.1473 59.3094)"/>
 </g>
</svg>